<?xml version="1.0" encoding="UTF-8"?>
<svg id="_layer_1" data-name="layer 1" xmlns="http://www.w3.org/2000/svg" xmlns:xlink="http://www.w3.org/1999/xlink" viewBox="0 0 512 512">
  <defs>
    <style>
      .cls-1 {
        fill: url(#_gradient_30);
        filter: url(#drop-shadow-2);
      }

      .cls-2 {
        clip-path: url(#clippath);
      }

      .cls-3 {
        fill: none;
      }

      .cls-4 {
        fill: url(#_gradient_2);
        filter: url(#drop-shadow-1);
      }
    </style>
    <clipPath id="clippath">
      <path class="cls-3" d="M472.75,47.4c-1.03-3.08-2.57-5.65-5.14-8.22-2.05-2.05-4.62-4.11-7.7-5.13-3.08-1.54-6.16-2.06-9.75-2.06h-62.12c-21.05,0-41.58,2.06-62.12,5.65-20.53,3.59-40.56,9.24-60.07,16.43-19.51,7.19-37.99,16.43-55.96,27.21-17.97,10.27-34.91,22.59-50.31,36.45-15.4,13.35-29.26,28.75-42.1,45.18-12.83,16.43-23.1,34.4-32.34,53.91-7.7,16.94-13.86,33.37-17.45,48.77-4.11,15.4-6.67,30.8-8.22,46.2-1.54,15.4-2.05,31.32-2.05,47.74,.41,12.54,.49,26.37,.51,40.71-7.49,16.53-14.18,33.42-19.73,50.69-3.8,12.29,3.66,25.41,16.17,28.41,12.06,2.94,24.22-4.46,27.15-16.52l.08-.35,.31-1.28s.39-1.49,.39-1.49c5.12-18.54,11.51-36.69,18.82-54.49h26.66c7.7,0,49.98-.49,70.64-5.14,26.73-6.01,46.6-15.21,67.69-33.63,22.01-19.23,33.3-31.69,54.16-61.86,18.03-26.08,25.23-44.67,27.72-51.34,1.61-4.3,3.08-8.73,3.08-13.35,0-2.57-.51-5.14-1.54-7.7s-2.05-5.13-3.59-7.7c-1.54-2.57-3.08-5.13-4.62-7.19-1.54-2.57-4.11-6.67-4.11-6.67h16.43c2.57,0,5.65,0,8.21-.51s5.14-1.54,7.7-3.08c4.11-2.06,7.19-5.14,9.75-8.73,3.59-6.16,7.7-12.83,11.29-19s7.7-12.32,11.81-18.48c10.27-15.4,20.53-30.29,31.32-44.15,10.78-14.38,22.08-28.24,33.88-42.1,2.06-2.57,4.11-5.13,5.14-8.21,1.54-2.57,2.05-5.65,2.05-9.24s-.51-6.67-2.05-9.75Z"/>
    </clipPath>
    <linearGradient id="_gradient_2" data-name="gradient 2" x1="57.41" y1="221.95" x2="474.8" y2="221.95" gradientUnits="userSpaceOnUse">
      <stop offset="0" stop-color="#168dd5"/>
      <stop offset="1" stop-color="#066abd"/>
    </linearGradient>
    <filter id="drop-shadow-1" filterUnits="userSpaceOnUse">
      <feOffset dx="0" dy="9.63"/>
      <feGaussianBlur result="blur" stdDeviation="19.25"/>
      <feFlood flood-color="#040000" flood-opacity=".25"/>
      <feComposite in2="blur" operator="in"/>
      <feComposite in="SourceGraphic"/>
    </filter>
    <linearGradient id="_gradient_30" data-name="gradient 30" x1="150.14" y1="248.16" x2="225.49" y2="323.51" gradientUnits="userSpaceOnUse">
      <stop offset="0" stop-color="#fff"/>
      <stop offset="1" stop-color="#b9b9c8"/>
    </linearGradient>
    <filter id="drop-shadow-2" filterUnits="userSpaceOnUse">
      <feOffset dx="0" dy="9.63"/>
      <feGaussianBlur result="blur-2" stdDeviation="19.25"/>
      <feFlood flood-color="#040000" flood-opacity=".25"/>
      <feComposite in2="blur-2" operator="in"/>
      <feComposite in="SourceGraphic"/>
    </filter>
  </defs>
  <g class="cls-2">
    <path class="cls-4" d="M474.8,57.16c0,3.59-.51,6.67-2.05,9.24-1.03,3.08-3.08,5.65-5.14,8.21-11.81,13.86-23.1,27.72-33.88,42.1-10.78,13.86-21.05,28.75-31.32,44.15-4.11,6.16-8.22,12.32-11.81,18.48-3.59,6.16-7.7,12.83-11.29,19-2.57,3.59-5.65,6.67-9.75,8.73-2.57,1.54-5.14,2.57-7.7,3.08s-5.65,.51-8.21,.51h-16.43s2.57,4.1,4.11,6.67c1.54,2.05,3.08,4.62,4.62,7.19,1.54,2.57,2.57,5.14,3.59,7.7s1.54,5.13,1.54,7.7c0,4.62-1.47,9.05-3.08,13.35-2.5,6.66-9.69,25.26-27.72,51.34-20.86,30.17-32.15,42.63-54.16,61.86-21.08,18.42-40.96,27.62-67.69,33.63-20.66,4.64-62.93,5.14-70.64,5.14h-46.24l-23.62,6.67c0-18.48,0-36.45-.51-52.37,0-16.43,.51-32.34,2.05-47.74,1.54-15.4,4.11-30.8,8.22-46.2,3.59-15.4,9.75-31.83,17.45-48.77,9.24-19.51,19.51-37.48,32.34-53.91,12.83-16.43,26.7-31.83,42.1-45.18,15.4-13.86,32.34-26.18,50.31-36.45,17.97-10.78,36.45-20.02,55.96-27.21,19.51-7.19,39.53-12.83,60.07-16.43,20.54-3.59,41.07-5.65,62.12-5.65h62.12c3.59,0,6.67,.51,9.75,2.06,3.08,1.02,5.65,3.08,7.7,5.13,2.57,2.57,4.11,5.13,5.14,8.22,1.54,3.08,2.05,6.16,2.05,9.75Z"/>
    <path class="cls-1" d="M38.19,450.94c11.97-37.23,29.16-72.7,48.43-106.57,56.99-99.69,140.32-185.05,241.15-240.39,10.87-5.63,20.17,9.46,9.84,16.55-93.3,58.39-168.11,143.85-217.08,242.08-15.52,31.23-28.96,63.53-38.23,97.11,0,0-.39,1.49-.39,1.49l-.31,1.28-.08,.35c-2.94,12.06-15.09,19.46-27.15,16.52-12.52-3-19.97-16.12-16.17-28.41h0Z"/>
  </g>
</svg>