<?xml version="1.0" encoding="UTF-8"?>
<svg xmlns="http://www.w3.org/2000/svg" xmlns:xlink="http://www.w3.org/1999/xlink" viewBox="0 0 512 512">
  <defs>
    <style>
      .cls-1 {
        fill: url(#_gradient_2-2);
        filter: url(#drop-shadow-4);
      }

      .cls-2 {
        clip-path: url(#clippath-1);
      }

      .cls-3 {
        fill: url(#_gradient_5);
        filter: url(#drop-shadow-3);
      }

      .cls-4 {
        clip-path: url(#clippath);
      }

      .cls-5 {
        fill: url(#_gradient_30);
        filter: url(#drop-shadow-5);
      }

      .cls-6 {
        fill: none;
      }

      .cls-7 {
        fill: url(#_gradient_5-2);
        filter: url(#drop-shadow-6);
      }

      .cls-8 {
        fill: url(#_gradient_2);
        filter: url(#drop-shadow-1);
      }

      .cls-9 {
        fill: url(#_gradient_16);
      }
    </style>
    <clipPath id="clippath">
      <path class="cls-6" d="M-59.25,47.4c-1.03-3.08-2.57-5.65-5.14-8.22-2.05-2.05-4.62-4.11-7.7-5.13-3.08-1.54-6.16-2.06-9.75-2.06h-62.12c-21.05,0-41.58,2.06-62.12,5.65-20.53,3.59-40.56,9.24-60.07,16.43-19.51,7.19-37.99,16.43-55.96,27.21-17.97,10.27-34.91,22.59-50.31,36.45-15.4,13.35-29.26,28.75-42.1,45.18-12.83,16.43-23.1,34.4-32.34,53.91-7.7,16.94-13.86,33.37-17.45,48.77-4.11,15.4-6.67,30.8-8.22,46.2-1.54,15.4-2.05,31.32-2.05,47.74,.41,12.54,.49,26.37,.51,40.71-7.49,16.53-14.18,33.42-19.73,50.69-3.8,12.29,3.66,25.41,16.17,28.41,12.06,2.94,24.22-4.46,27.15-16.52l.08-.35,.31-1.28s.39-1.49,.39-1.49c5.12-18.54,11.51-36.69,18.82-54.49h26.66c7.7,0,49.98-.49,70.64-5.14,26.73-6.01,46.6-15.21,67.69-33.63,22.01-19.23,33.3-31.69,54.16-61.86,18.03-26.08,25.23-44.67,27.72-51.34,1.61-4.3,3.08-8.73,3.08-13.35,0-2.57-.51-5.14-1.54-7.7s-2.05-5.13-3.59-7.7c-1.54-2.57-3.08-5.13-4.62-7.19-1.54-2.57-4.11-6.67-4.11-6.67h16.43c2.57,0,5.65,0,8.21-.51s5.14-1.54,7.7-3.08c4.11-2.06,7.19-5.14,9.75-8.73,3.59-6.16,7.7-12.83,11.29-19s7.7-12.32,11.81-18.48c10.27-15.4,20.53-30.29,31.32-44.15,10.78-14.38,22.08-28.24,33.88-42.1,2.06-2.57,4.11-5.13,5.14-8.21,1.54-2.57,2.05-5.65,2.05-9.24s-.51-6.67-2.05-9.75Z"/>
    </clipPath>
    <linearGradient id="_gradient_2" data-name="gradient 2" x1="-474.59" y1="221.95" x2="-57.2" y2="221.95" gradientUnits="userSpaceOnUse">
      <stop offset="0" stop-color="#168dd5"/>
      <stop offset="1" stop-color="#066abd"/>
    </linearGradient>
    <filter id="drop-shadow-1" filterUnits="userSpaceOnUse">
      <feOffset dx="0" dy="9.63"/>
      <feGaussianBlur result="blur" stdDeviation="19.25"/>
      <feFlood flood-color="#040000" flood-opacity=".25"/>
      <feComposite in2="blur" operator="in"/>
      <feComposite in="SourceGraphic"/>
    </filter>
    <clipPath id="clippath-1">
      <path class="cls-6" d="M478.23,220.64c-.64-1.92-1.6-3.52-3.2-5.12-1.28-1.28-2.88-2.56-4.8-3.2-1.92-.96-3.84-1.28-6.08-1.28h-16.15V82c0-9.94-8.06-18-18-18H114c-9.94,0-18,8.06-18,18v110H50c-9.94,0-18,8.06-18,18v188c0,9.94,8.06,18,18,18H219.37c.23,7.61,.28,15.94,.29,24.58-4.67,10.3-8.84,20.83-12.3,31.6-2.37,7.66,2.28,15.84,10.08,17.71,7.52,1.83,15.09-2.78,16.93-10.3l.05-.22,.19-.8s.24-.93,.24-.93c3.19-11.56,7.18-22.87,11.73-33.96h16.62c4.8,0,31.15-.31,44.03-3.2,16.66-3.75,29.05-9.48,42.19-20.96,13.72-11.98,20.76-19.75,33.76-38.56,9.17-13.26,13.84-23.42,16.1-28.96h30.71c9.94,0,18-8.06,18-18v-62.29c1.95-2.67,3.91-5.3,5.91-7.86,6.72-8.96,13.76-17.6,21.12-26.24,1.28-1.6,2.56-3.2,3.2-5.12,.96-1.6,1.28-3.52,1.28-5.76s-.32-4.16-1.28-6.08Z"/>
    </clipPath>
    <linearGradient id="_gradient_16" data-name="gradient 16" x1="117.27" y1="53.27" x2="426.73" y2="362.73" gradientUnits="userSpaceOnUse">
      <stop offset="0" stop-color="#bec3cd"/>
      <stop offset=".96" stop-color="#afb4b9"/>
      <stop offset="1" stop-color="#afb4b9"/>
    </linearGradient>
    <linearGradient id="_gradient_5" data-name="gradient 5" x1="53.27" y1="181.27" x2="298.73" y2="426.73" gradientUnits="userSpaceOnUse">
      <stop offset="0" stop-color="#727980"/>
      <stop offset="1" stop-color="#46494e"/>
    </linearGradient>
    <filter id="drop-shadow-3" filterUnits="userSpaceOnUse">
      <feOffset dx="0" dy="6"/>
      <feGaussianBlur result="blur-2" stdDeviation="12"/>
      <feFlood flood-color="#040000" flood-opacity=".25"/>
      <feComposite in2="blur-2" operator="in"/>
      <feComposite in="SourceGraphic"/>
    </filter>
    <linearGradient id="_gradient_2-2" data-name="gradient 2" x1="219.35" y1="329.44" x2="479.51" y2="329.44" xlink:href="#_gradient_2"/>
    <filter id="drop-shadow-4" filterUnits="userSpaceOnUse">
      <feOffset dx="0" dy="6"/>
      <feGaussianBlur result="blur-3" stdDeviation="12"/>
      <feFlood flood-color="#040000" flood-opacity=".25"/>
      <feComposite in2="blur-3" operator="in"/>
      <feComposite in="SourceGraphic"/>
    </filter>
    <linearGradient id="_gradient_30" data-name="gradient 30" x1="277.15" y1="345.78" x2="324.11" y2="392.74" gradientUnits="userSpaceOnUse">
      <stop offset="0" stop-color="#fff"/>
      <stop offset="1" stop-color="#b9b9c8"/>
    </linearGradient>
    <filter id="drop-shadow-5" filterUnits="userSpaceOnUse">
      <feOffset dx="0" dy="6"/>
      <feGaussianBlur result="blur-4" stdDeviation="12"/>
      <feFlood flood-color="#040000" flood-opacity=".25"/>
      <feComposite in2="blur-4" operator="in"/>
      <feComposite in="SourceGraphic"/>
    </filter>
    <linearGradient id="_gradient_5-2" data-name="gradient 5" x1="349.37" y1="103.31" x2="408.69" y2="162.63" xlink:href="#_gradient_5"/>
    <filter id="drop-shadow-6" filterUnits="userSpaceOnUse">
      <feOffset dx="0" dy="6"/>
      <feGaussianBlur result="blur-5" stdDeviation="12"/>
      <feFlood flood-color="#040000" flood-opacity=".25"/>
      <feComposite in2="blur-5" operator="in"/>
      <feComposite in="SourceGraphic"/>
    </filter>
  </defs>
  <g id="_layer_1" data-name="layer 1">
    <g class="cls-4">
      <path class="cls-8" d="M-57.2,57.16c0,3.59-.51,6.67-2.05,9.24-1.03,3.08-3.08,5.65-5.14,8.21-11.81,13.86-23.1,27.72-33.88,42.1-10.78,13.86-21.05,28.75-31.32,44.15-4.11,6.16-8.22,12.32-11.81,18.48-3.59,6.16-7.7,12.83-11.29,19-2.57,3.59-5.65,6.67-9.75,8.73-2.57,1.54-5.14,2.57-7.7,3.08s-5.65,.51-8.21,.51h-16.43s2.57,4.1,4.11,6.67c1.54,2.05,3.08,4.62,4.62,7.19,1.54,2.57,2.57,5.14,3.59,7.7s1.54,5.13,1.54,7.7c0,4.62-1.47,9.05-3.08,13.35-2.5,6.66-9.69,25.26-27.72,51.34-20.86,30.17-32.15,42.63-54.16,61.86-21.08,18.42-40.96,27.62-67.69,33.63-20.66,4.64-62.93,5.14-70.64,5.14h-46.24l-23.62,6.67c0-18.48,0-36.45-.51-52.37,0-16.43,.51-32.34,2.05-47.74,1.54-15.4,4.11-30.8,8.22-46.2,3.59-15.4,9.75-31.83,17.45-48.77,9.24-19.51,19.51-37.48,32.34-53.91,12.83-16.43,26.7-31.83,42.1-45.18,15.4-13.86,32.34-26.18,50.31-36.45,17.97-10.78,36.45-20.02,55.96-27.21,19.51-7.19,39.53-12.83,60.07-16.43,20.54-3.59,41.07-5.65,62.12-5.65h62.12c3.59,0,6.67,.51,9.75,2.06,3.08,1.02,5.65,3.08,7.7,5.13,2.57,2.57,4.11,5.13,5.14,8.22,1.54,3.08,2.05,6.16,2.05,9.75Z"/>
    </g>
  </g>
  <g id="_layer_3" data-name="layer 3">
    <g class="cls-2">
      <rect class="cls-9" x="96" y="64" width="352" height="288" rx="18" ry="18"/>
      <rect class="cls-3" x="32" y="192" width="288" height="224" rx="18" ry="18"/>
      <path class="cls-1" d="M479.51,226.72c0,2.24-.32,4.16-1.28,5.76-.64,1.92-1.92,3.52-3.2,5.12-7.36,8.64-14.4,17.28-21.12,26.24-6.72,8.64-13.12,17.92-19.52,27.52-2.56,3.84-5.12,7.68-7.36,11.52s-4.8,8-7.04,11.84c-1.6,2.24-3.52,4.16-6.08,5.44-1.6,.96-3.2,1.6-4.8,1.92s-3.52,.32-5.12,.32h-10.24s1.6,2.56,2.56,4.16c.96,1.28,1.92,2.88,2.88,4.48,.96,1.6,1.6,3.2,2.24,4.8s.96,3.2,.96,4.8c0,2.88-.92,5.64-1.92,8.32-1.56,4.15-6.04,15.74-17.28,32-13,18.8-20.04,26.57-33.76,38.56s-25.53,17.21-42.19,20.96c-12.87,2.9-39.23,3.2-44.03,3.2h-28.82l-14.72,4.16c0-11.52,0-22.72-.32-32.64,0-10.24,.32-20.16,1.28-29.76,.96-9.6,2.56-19.2,5.12-28.8,2.24-9.6,6.08-19.84,10.88-30.4,5.76-12.16,12.16-23.36,20.16-33.6,8-10.24,16.64-19.84,26.24-28.16,9.6-8.64,20.16-16.32,31.36-22.72,11.2-6.72,22.72-12.48,34.88-16.96,12.16-4.48,24.64-8,37.44-10.24,12.8-2.24,25.6-3.52,38.72-3.52h38.72c2.24,0,4.16,.32,6.08,1.28,1.92,.64,3.52,1.92,4.8,3.2,1.6,1.6,2.56,3.2,3.2,5.12,.96,1.92,1.28,3.84,1.28,6.08Z"/>
      <path class="cls-5" d="M207.37,472.17c7.46-23.2,18.18-45.31,30.19-66.42,35.52-62.14,87.46-115.34,150.31-149.84,6.77-3.51,12.57,5.9,6.13,10.31-58.15,36.39-104.79,89.66-135.31,150.89-9.68,19.47-18.05,39.6-23.83,60.53,0,0-.24,.93-.24,.93l-.19,.8-.05,.22c-1.83,7.52-9.41,12.13-16.93,10.3-7.8-1.87-12.45-10.05-10.08-17.71h0Z"/>
      <path class="cls-7" d="M396,172h0c-30.93,0-56-25.07-56-56h0c0-4.42,3.58-8,8-8h48c4.42,0,8,3.58,8,8v48c0,4.42-3.58,8-8,8Z"/>
    </g>
  </g>
</svg>