<?xml version="1.0" encoding="UTF-8"?>
<svg id="_Layer_3" data-name="Layer 3" xmlns="http://www.w3.org/2000/svg" xmlns:xlink="http://www.w3.org/1999/xlink" viewBox="0 0 512 512">
  <defs>
    <style>
      .cls-1 {
        fill: url(#_gradient_4);
        filter: url(#drop-shadow-3);
      }

      .cls-2 {
        fill: url(#_gradient_5);
        filter: url(#drop-shadow-4);
      }

      .cls-3 {
        fill: url(#_gradient_2);
        filter: url(#drop-shadow-2);
      }

      .cls-4 {
        clip-path: url(#clippath);
      }

      .cls-5 {
        fill: none;
      }

      .cls-6 {
        fill: url(#_gradient_5);
        filter: url(#drop-shadow-1);
      }

      .cls-7 {
        fill: url(#_gradient_6);
      }
    </style>
    <linearGradient id="_gradient_6" data-name="gradient 6" x1="121.37" y1="57.37" x2="422.63" y2="358.63" gradientUnits="userSpaceOnUse">
      <stop offset="0" stop-color="#c8c9ca"/>
      <stop offset="1" stop-color="#b4b4b5"/>
    </linearGradient>
    <clipPath id="clippath">
      <path class="cls-5" d="M478.23,220.64c-.64-1.92-1.6-3.52-3.2-5.12-1.28-1.28-2.88-2.56-4.8-3.2-1.92-.96-3.84-1.28-6.08-1.28h-16.15V96c0-17.67-14.33-32-32-32H128c-17.67,0-32,14.33-32,32v96h-32c-17.67,0-32,14.33-32,32v160c0,17.67,14.33,32,32,32H219.37c.23,7.61,.28,15.94,.29,24.58-4.67,10.3-8.84,20.83-12.3,31.6-2.37,7.66,2.28,15.84,10.08,17.71,7.52,1.83,15.09-2.78,16.93-10.3l.05-.22,.19-.8s.24-.93,.24-.93c3.19-11.56,7.18-22.87,11.73-33.96h16.62c4.8,0,31.15-.31,44.03-3.2,16.66-3.75,29.05-9.48,42.19-20.96,13.72-11.98,20.76-19.75,33.76-38.56,9.17-13.26,13.84-23.42,16.1-28.96h16.71c17.67,0,32-14.33,32-32v-48.29c1.95-2.67,3.91-5.3,5.91-7.86,6.72-8.96,13.76-17.6,21.12-26.24,1.28-1.6,2.56-3.2,3.2-5.12,.96-1.6,1.28-3.52,1.28-5.76s-.32-4.16-1.28-6.08Z"/>
    </clipPath>
    <linearGradient id="_gradient_5" data-name="gradient 5" x1="57.37" y1="185.37" x2="294.63" y2="422.63" gradientUnits="userSpaceOnUse">
      <stop offset="0" stop-color="#727980"/>
      <stop offset="1" stop-color="#46494e"/>
    </linearGradient>
    <filter id="drop-shadow-1" filterUnits="userSpaceOnUse">
      <feOffset dx="0" dy="6"/>
      <feGaussianBlur result="blur" stdDeviation="12"/>
      <feFlood flood-color="#040000" flood-opacity=".25"/>
      <feComposite in2="blur" operator="in"/>
      <feComposite in="SourceGraphic"/>
    </filter>
    <linearGradient id="_gradient_2" data-name="gradient 2" x1="219.35" y1="329.44" x2="479.51" y2="329.44" gradientUnits="userSpaceOnUse">
      <stop offset="0" stop-color="#168dd5"/>
      <stop offset="1" stop-color="#066abd"/>
    </linearGradient>
    <filter id="drop-shadow-2" filterUnits="userSpaceOnUse">
      <feOffset dx="0" dy="6"/>
      <feGaussianBlur result="blur-2" stdDeviation="12"/>
      <feFlood flood-color="#040000" flood-opacity=".25"/>
      <feComposite in2="blur-2" operator="in"/>
      <feComposite in="SourceGraphic"/>
    </filter>
    <linearGradient id="_gradient_4" data-name="gradient 4" x1="277.15" y1="345.78" x2="324.11" y2="392.74" gradientUnits="userSpaceOnUse">
      <stop offset="0" stop-color="#fff"/>
      <stop offset="1" stop-color="#c8c9ca"/>
    </linearGradient>
    <filter id="drop-shadow-3" filterUnits="userSpaceOnUse">
      <feOffset dx="0" dy="6"/>
      <feGaussianBlur result="blur-3" stdDeviation="12"/>
      <feFlood flood-color="#040000" flood-opacity=".25"/>
      <feComposite in2="blur-3" operator="in"/>
      <feComposite in="SourceGraphic"/>
    </filter>
    <linearGradient id="_gradient_2-2" data-name="gradient 2" x1="349.37" y1="103.31" x2="408.69" y2="162.63" xlink:href="#_gradient_2"/>
    <filter id="drop-shadow-4" filterUnits="userSpaceOnUse">
      <feOffset dx="0" dy="6"/>
      <feGaussianBlur result="blur-4" stdDeviation="12"/>
      <feFlood flood-color="#040000" flood-opacity=".25"/>
      <feComposite in2="blur-4" operator="in"/>
      <feComposite in="SourceGraphic"/>
    </filter>
  </defs>
  <rect class="cls-7" x="96" y="64" width="352" height="288" rx="32" ry="32"/>
  <g class="cls-4">
    <rect class="cls-6" x="32" y="192" width="288" height="224" rx="32" ry="32"/>
    <path class="cls-3" d="M479.51,226.72c0,2.24-.32,4.16-1.28,5.76-.64,1.92-1.92,3.52-3.2,5.12-7.36,8.64-14.4,17.28-21.12,26.24-6.72,8.64-13.12,17.92-19.52,27.52-2.56,3.84-5.12,7.68-7.36,11.52s-4.8,8-7.04,11.84c-1.6,2.24-3.52,4.16-6.08,5.44-1.6,.96-3.2,1.6-4.8,1.92s-3.52,.32-5.12,.32h-10.24s1.6,2.56,2.56,4.16c.96,1.28,1.92,2.88,2.88,4.48,.96,1.6,1.6,3.2,2.24,4.8s.96,3.2,.96,4.8c0,2.88-.92,5.64-1.92,8.32-1.56,4.15-6.04,15.74-17.28,32-13,18.8-20.04,26.57-33.76,38.56-13.14,11.48-25.53,17.21-42.19,20.96-12.87,2.9-39.23,3.2-44.03,3.2h-28.82l-14.72,4.16c0-11.52,0-22.72-.32-32.64,0-10.24,.32-20.16,1.28-29.76,.96-9.6,2.56-19.2,5.12-28.8,2.24-9.6,6.08-19.84,10.88-30.4,5.76-12.16,12.16-23.36,20.16-33.6,8-10.24,16.64-19.84,26.24-28.16,9.6-8.64,20.16-16.32,31.36-22.72,11.2-6.72,22.72-12.48,34.88-16.96,12.16-4.48,24.64-8,37.44-10.24,12.8-2.24,25.6-3.52,38.72-3.52h38.72c2.24,0,4.16,.32,6.08,1.28,1.92,.64,3.52,1.92,4.8,3.2,1.6,1.6,2.56,3.2,3.2,5.12,.96,1.92,1.28,3.84,1.28,6.08Z"/>
    <path class="cls-1" d="M207.37,472.17c7.46-23.2,18.18-45.31,30.19-66.42,35.52-62.14,87.46-115.34,150.31-149.84,6.77-3.51,12.57,5.9,6.13,10.31-58.15,36.39-104.79,89.66-135.31,150.89-9.68,19.47-18.05,39.6-23.83,60.53,0,0-.24,.93-.24,.93l-.19,.8-.05,.22c-1.83,7.52-9.41,12.13-16.93,10.3-7.8-1.87-12.45-10.05-10.08-17.71h0Z"/>
    <path class="cls-2" d="M396,172h0c-30.93,0-56-25.07-56-56h0c0-4.42,3.58-8,8-8h48c4.42,0,8,3.58,8,8v48c0,4.42-3.58,8-8,8Z"/>
  </g>
</svg>